<?xml version="1.0" encoding="UTF-8"?>
<svg id="Layer_1" data-name="Layer 1" xmlns="http://www.w3.org/2000/svg" version="1.1" viewBox="0 0 300 70">
  <g>
    <path d="M160.3,22.5v5.1c3.4-4.7,7.9-6.3,13.2-5.9,4.3.3,7.7,2.2,10.5,5.4,5.9,6.7,5.1,17.3-1.5,23.4-5.2,4.8-16.1,6.1-22.1-1.9v17.4h-5.4V22.5h5.4ZM182.5,38c0-6.4-4.7-11.3-11-11.3-6.4,0-11.2,4.9-11.2,11.3,0,6.4,4.8,11.2,11.1,11.2,6.3,0,11.1-4.8,11.1-11.2" fill="#000" stroke-width="0"/>
    <path d="M149.8,18.8c-1.6.9-3.1,1.8-4.7,2.7-.3-.5-.6-1-.8-1.4-2.6-4.6-8.5-6.6-13.4-4.4-2.2,1-3.6,2.6-3.8,5.2-.2,2.6.9,4.5,3.3,5.5,3.4,1.4,6.9,2.6,10.4,4,2.6,1,5.1,2.1,7.3,4,4.1,3.5,4.1,12.1-.4,16.1-2.6,2.4-5.7,3.6-9.2,3.9-5.3.5-10.4-.3-14.6-3.9-2.2-1.8-3.9-4.5-4.4-6.8,1.6-.9,3.2-1.8,4.8-2.7.1.2.2.3.3.5,2.8,6.6,11,9.5,17.3,6.2,2.2-1.1,3.4-2.9,3.4-5.4,0-2.5-1.1-4.3-3.3-5.3-3.3-1.4-6.7-2.5-10-3.8-1.7-.6-3.4-1.3-5-2.1-7.2-3.3-7.2-12.5-3.2-17.1,7-8.1,22.2-5.3,25.9,5" fill="#000" stroke-width="0"/>
    <path d="M248.9,53.5h-5.4v-1.5c0-5.5,0-10.9,0-16.4,0-1,0-2.1-.2-3.1-.8-4.1-4.4-6.3-8.9-5.6-4.4.6-7.2,3.5-7.5,8-.3,5.2-.2,10.4-.2,15.6,0,1,0,2.1,0,3.2h-5.4v-31h5.4v4.1c.5-.5.7-.7.9-1,4.5-5.4,13.8-5.5,18.4-.3,2.1,2.3,2.9,5.1,3,8.1,0,6.5,0,13.1,0,19.6,0,.1,0,.2-.1.4" fill="#000" stroke-width="0"/>
    <path d="M295.2,28.1c-1.6.9-3,1.7-4.4,2.5-.2-.2-.3-.3-.4-.4-2-3.2-6.3-4.5-9.7-2.8-1.4.7-2.2,1.6-2.3,3.2,0,1.6.7,2.7,2.1,3.2,3,1.1,6.1,2.2,9.2,3.2,2.8,1,5.1,2.6,5.9,5.6,1.1,3.9-.4,7.6-3.7,9.8-4.9,3.2-13,2.6-17.3-1.4-1.1-1-2-2.4-3-3.8,1.8-1,3.3-1.9,4.8-2.7,2.7,4.3,6.9,5.8,11.3,4.2,1.6-.6,2.6-1.6,2.8-3.3.1-1.7-.8-2.9-2.3-3.5-2.8-1.1-5.6-2-8.4-3-.9-.3-1.8-.6-2.6-1-4.1-2.3-5.5-7.3-3.1-11.3,2.6-4.1,6.6-5.3,11.1-5,4.4.3,7.9,2.3,10.1,6.5" fill="#000" stroke-width="0"/>
    <path d="M257.3,27.6h-6.1v-5.1h6.1c0-2,0-3.9,0-5.8,0-1.1.4-1.6,1.4-1.8,1.3-.3,2.6-.7,4.1-1.2v8.7h8.3v5.1h-8.2c0,.6,0,1,0,1.4,0,5,0,10,0,15,0,.7,0,1.4.2,2,.3,1.7,1.2,2.7,3,2.7,1.7,0,3.3,0,5.1,0v4.8c-3,.4-6,.6-8.9-.4-2.8-1-4.1-3.1-4.6-5.9-.2-1.5-.3-3.1-.3-4.6,0-5,0-9.9,0-15.1" fill="#000" stroke-width="0"/>
    <path d="M192.1,22.4h5.3v4.5c0,0,.2.2.2.2,2.1-3.7,5.3-5.3,9.5-5.3v5.6c-.9.1-1.9.2-2.8.4-3.9.8-6.5,3.4-6.7,7.4-.2,4.4-.1,8.8-.2,13.3,0,1.6,0,3.2,0,5h-5.4v-31Z" fill="#000" stroke-width="0"/>
    <rect x="211.3" y="22.5" width="5.3" height="31" fill="#000" stroke-width="0"/>
    <path d="M210.3,13c0-2.1,1.6-3.7,3.7-3.6,2,0,3.7,1.7,3.6,3.8,0,2-1.7,3.6-3.7,3.6-2.1,0-3.7-1.6-3.7-3.7" fill="#000" stroke-width="0"/>
  </g>
  <g>
    <path d="M74.4,3.1l-18.5,49.1h0c-2,5-6.1,9-11.2,10.9,0,0-.2,0-.3.1,0,0-.2,0-.3,0-3.1,1.1-6.5,1.6-10,1.6s-1.5,0-2.2,0L50.8,14.8h0c1-2.1,2.3-4,3.9-5.6,1.9-1.9,4.3-3.5,6.9-4.4.2,0,.3-.1.5-.2,3.1-1.1,6.5-1.7,10-1.7s1.5,0,2.3,0Z" fill="#004eff" stroke-width="0"/>
    <path d="M103.1,34c0,14.4-9.8,26.4-23,29.9,0,0,0,0,0,0,0,0,0,0-.1,0,0,0,0,0,0,0,0,0-.2,0-.3,0-.6,0-1.2-.4-1.4-1,0,0,0,0,0,0l-5.8-15.5s0,0,0,0c0-.2,0-.3,0-.5,0-.7.5-1.3,1.2-1.5,0,0,0,0,0,0,5.7-.7,10.1-5.6,10.1-11.5s-5.2-11.6-11.6-11.6-.3,0-.5,0l7-18.7c14,3,24.4,15.4,24.4,30.3Z" fill="#004eff" stroke-width="0"/>
    <path d="M34.6,45.6l-7,18.7c-14-3-24.4-15.4-24.4-30.3S13,7.5,26.2,4c0,0,0,0,0,0,.1,0,.2,0,.4,0,.6,0,1.1.4,1.4.9,0,0,0,0,0,0l5.9,15.5s0,0,0,0c0,.1,0,.3,0,.4,0,.7-.5,1.3-1.2,1.5,0,0,0,0-.1,0-5.7.7-10.1,5.6-10.1,11.5s5.2,11.6,11.6,11.6.3,0,.5,0Z" fill="#004eff" stroke-width="0"/>
  </g>
</svg>